<?xml version="1.0" encoding="UTF-8" standalone="no"?>
<!-- Created with Inkscape (http://www.inkscape.org/) -->

<svg
   width="210mm"
   height="297mm"
   viewBox="0 0 210 297"
   version="1.1"
   id="svg5"
   inkscape:version="1.2.2 (b0a8486541, 2022-12-01)"
   sodipodi:docname="asas.svg"
   xml:space="preserve"
   xmlns:inkscape="http://www.inkscape.org/namespaces/inkscape"
   xmlns:sodipodi="http://sodipodi.sourceforge.net/DTD/sodipodi-0.dtd"
   xmlns="http://www.w3.org/2000/svg"
   xmlns:svg="http://www.w3.org/2000/svg"><sodipodi:namedview
     id="namedview7"
     pagecolor="#ffffff"
     bordercolor="#000000"
     borderopacity="0.25"
     inkscape:showpageshadow="2"
     inkscape:pageopacity="0.0"
     inkscape:pagecheckerboard="0"
     inkscape:deskcolor="#d1d1d1"
     inkscape:document-units="mm"
     showgrid="false"
     inkscape:zoom="1.6819304"
     inkscape:cx="1126.3843"
     inkscape:cy="109.69538"
     inkscape:window-width="1920"
     inkscape:window-height="1011"
     inkscape:window-x="0"
     inkscape:window-y="0"
     inkscape:window-maximized="1"
     inkscape:current-layer="layer1" /><defs
     id="defs2"><filter
       inkscape:collect="always"
       style="color-interpolation-filters:sRGB"
       id="filter1657"
       x="-0.10231905"
       y="-0.1023895"
       width="1.2046381"
       height="1.204779"><feGaussianBlur
         inkscape:collect="always"
         stdDeviation="1.5346446"
         id="feGaussianBlur1659" /></filter></defs><g
     inkscape:label="Layer 1"
     inkscape:groupmode="layer"
     id="layer1"><circle
       style="fill:#000000;fill-opacity:1;stroke-width:2.86499;stroke-linecap:round;stroke-linejoin:round"
       id="path286"
       cx="102.83525"
       cy="32.604755"
       r="36.777298" /><circle
       style="opacity:1;fill:#000000;fill-opacity:1;stroke:none;stroke-width:2.86499;stroke-linecap:round;stroke-linejoin:round;stroke-opacity:1"
       id="path1130"
       cx="330.4165"
       cy="32.215607"
       r="29.933052" /><g
       id="g1585"><path
         d="M 320.653 36.0933 C 320.653 40.523 324.244 44.1139 328.674 44.1139 L 328.674 44.1131 C 328.673 39.6838 325.083 36.0933 320.653 36.0933 L 320.653 36.0933 Z"
         style="fill:#417000;fill-opacity:1.0;stroke-width:2.86499px"
         id="path1575" /><path
         d="M 315.611 35.1239 C 315.611 42.579 321.654 48.6226 329.11 48.6226 L 329.11 48.622 C 329.109 41.1671 323.066 35.1239 315.611 35.1239 L 315.611 35.1239 Z"
         style="fill:#559300;fill-opacity:1.0;stroke-width:2.86499px"
         id="path1577" /><path
         d="M 310.568 34.1545 C 310.568 44.6351 319.065 53.1312 329.545 53.1313 L 329.545 53.1309 C 329.545 42.6505 321.049 34.1545 310.568 34.1545 L 310.568 34.1545 Z"
         style="fill:#6ab700;fill-opacity:1.0;stroke-width:2.86499px"
         id="path1579" /><path
         d="M 305.526 33.185 C 305.526 46.6911 316.475 57.6399 329.981 57.64 L 329.981 57.6398 C 329.981 44.1338 319.032 33.1851 305.526 33.185 L 305.526 33.185 Z"
         style="fill:#7fdb00;fill-opacity:1.0;stroke-width:2.86499px"
         id="path1581" /><path
         d="M 300.483 32.2156 C 300.484 48.7471 313.885 62.1486 330.417 62.1487 L 330.417 62.1487 C 330.416 45.6171 317.015 32.2157 300.483 32.2156 L 300.483 32.2156 Z"
         style="fill:#94ff00;fill-opacity:1.0;stroke-width:2.86499px"
         id="path1583" /></g><g
       id="g1605"
       transform="matrix(-1,0,0,1,660.83217,4.3643066e-6)"><path
         d="m 320.653,36.0933 c 0,4.4297 3.591,8.0206 8.021,8.0206 v -8e-4 c -10e-4,-4.4293 -3.591,-8.0198 -8.021,-8.0198 z"
         style="fill:#417000;fill-opacity:1;stroke-width:2.86499px"
         id="path1595" /><path
         d="m 315.611,35.1239 c 0,7.4551 6.043,13.4987 13.499,13.4987 v -6e-4 c -0.001,-7.4549 -6.044,-13.4981 -13.499,-13.4981 z"
         style="fill:#559300;fill-opacity:1;stroke-width:2.86499px"
         id="path1597" /><path
         d="m 310.568,34.1545 c 0,10.4806 8.497,18.9767 18.977,18.9768 v -4e-4 c 0,-10.4804 -8.496,-18.9764 -18.977,-18.9764 z"
         style="fill:#6ab700;fill-opacity:1;stroke-width:2.86499px"
         id="path1599" /><path
         d="m 305.526,33.185 c 0,13.5061 10.949,24.4549 24.455,24.455 v -2e-4 c 0,-13.506 -10.949,-24.4547 -24.455,-24.4548 z"
         style="fill:#7fdb00;fill-opacity:1;stroke-width:2.86499px"
         id="path1601" /><path
         d="m 300.483,32.2156 c 10e-4,16.5315 13.402,29.933 29.934,29.9331 v 0 C 330.416,45.6171 317.015,32.2157 300.483,32.2156 Z"
         style="fill:#94ff00;fill-opacity:1;stroke-width:2.86499px"
         id="path1603" /></g><g
       id="g1617"
       transform="matrix(1,0,0,-1,-4.9609375e-4,64.431255)"><path
         d="m 320.653,36.0933 c 0,4.4297 3.591,8.0206 8.021,8.0206 v -8e-4 c -10e-4,-4.4293 -3.591,-8.0198 -8.021,-8.0198 z"
         style="fill:#417000;fill-opacity:1;stroke-width:2.86499px"
         id="path1607" /><path
         d="m 315.611,35.1239 c 0,7.4551 6.043,13.4987 13.499,13.4987 v -6e-4 c -0.001,-7.4549 -6.044,-13.4981 -13.499,-13.4981 z"
         style="fill:#559300;fill-opacity:1;stroke-width:2.86499px"
         id="path1609" /><path
         d="m 310.568,34.1545 c 0,10.4806 8.497,18.9767 18.977,18.9768 v -4e-4 c 0,-10.4804 -8.496,-18.9764 -18.977,-18.9764 z"
         style="fill:#6ab700;fill-opacity:1;stroke-width:2.86499px"
         id="path1611" /><path
         d="m 305.526,33.185 c 0,13.5061 10.949,24.4549 24.455,24.455 v -2e-4 c 0,-13.506 -10.949,-24.4547 -24.455,-24.4548 z"
         style="fill:#7fdb00;fill-opacity:1;stroke-width:2.86499px"
         id="path1613" /><path
         d="m 300.483,32.2156 c 10e-4,16.5315 13.402,29.933 29.934,29.9331 v 0 C 330.416,45.6171 317.015,32.2157 300.483,32.2156 Z"
         style="fill:#94ff00;fill-opacity:1;stroke-width:2.86499px"
         id="path1615" /></g><g
       id="g1629"
       transform="rotate(180,330.41583,32.215625)"><path
         d="m 320.653,36.0933 c 0,4.4297 3.591,8.0206 8.021,8.0206 v -8e-4 c -10e-4,-4.4293 -3.591,-8.0198 -8.021,-8.0198 z"
         style="fill:#417000;fill-opacity:1;stroke-width:2.86499px"
         id="path1619" /><path
         d="m 315.611,35.1239 c 0,7.4551 6.043,13.4987 13.499,13.4987 v -6e-4 c -0.001,-7.4549 -6.044,-13.4981 -13.499,-13.4981 z"
         style="fill:#559300;fill-opacity:1;stroke-width:2.86499px"
         id="path1621" /><path
         d="m 310.568,34.1545 c 0,10.4806 8.497,18.9767 18.977,18.9768 v -4e-4 c 0,-10.4804 -8.496,-18.9764 -18.977,-18.9764 z"
         style="fill:#6ab700;fill-opacity:1;stroke-width:2.86499px"
         id="path1623" /><path
         d="m 305.526,33.185 c 0,13.5061 10.949,24.4549 24.455,24.455 v -2e-4 c 0,-13.506 -10.949,-24.4547 -24.455,-24.4548 z"
         style="fill:#7fdb00;fill-opacity:1;stroke-width:2.86499px"
         id="path1625" /><path
         d="m 300.483,32.2156 c 10e-4,16.5315 13.402,29.933 29.934,29.9331 v 0 C 330.416,45.6171 317.015,32.2157 300.483,32.2156 Z"
         style="fill:#94ff00;fill-opacity:1;stroke-width:2.86499px"
         id="path1627" /></g><path
       style="fill:#000000;fill-opacity:1;stroke-width:0.999999;filter:url(#filter1657)"
       d="m 329.26287,49.726181 c 0,-0.261461 -0.0375,-0.819342 -0.0829,-1.239733 -0.832,-7.67868 -6.73404,-13.828271 -14.32169,-14.922357 -0.45457,-0.06555 -1.18956,-0.143518 -1.63329,-0.173286 l -0.80681,-0.05413 v -3.453241 -3.453238 h 0.84665 c 3.26425,0 7.443,1.141831 10.64546,2.908843 3.25428,1.795582 6.23812,4.54218 8.34132,7.678074 1.8738,2.79387 3.16472,6.077833 3.69755,9.406223 0.15936,0.995537 0.31911,2.695495 0.31911,3.396094 v 0.382137 h -3.50275 -3.50274 z m 11.96405,0.298278 c -0.001,-0.694025 -0.1898,-2.964767 -0.32139,-3.876622 -0.74955,-5.189775 -2.8232,-9.925206 -6.16738,-14.084124 -1.68404,-2.094294 -4.1146,-4.294637 -6.45917,-5.847351 -4.34362,-2.876611 -9.44852,-4.533937 -14.54227,-4.721201 l -1.31844,-0.04848 v -3.608516 -3.60852 l 0.1771,3.88e-4 c 0.0973,2.21e-4 0.85008,0.03704 1.67263,0.08184 9.82147,0.534801 18.75552,4.878192 25.25027,12.27572 5.40259,6.153544 8.51278,13.994355 8.8439,22.2955 l 0.0527,1.318445 h -3.59375 -3.59374 l -2.9e-4,-0.177097 z m -25.09215,-0.06051 c -1.76713,-0.462979 -3.10725,-1.813398 -3.56126,-3.588598 -0.36095,-1.411223 -0.0449,-2.852328 0.89979,-4.100335 1.17052,-1.546697 3.36687,-2.26089 5.25047,-1.707332 1.26347,0.371322 2.40574,1.322594 2.96987,2.473367 0.46147,0.941309 0.59135,1.521976 0.54533,2.437664 -0.1541,3.06333 -3.1445,5.260678 -6.1042,4.485234 z"
       id="path1655" /><path
       style="fill:#ffffff;fill-opacity:1;stroke-width:0.999999"
       d="m 329.26287,49.726181 c 0,-0.261461 -0.0375,-0.819342 -0.0829,-1.239733 -0.832,-7.67868 -6.73404,-13.828271 -14.32169,-14.922357 -0.45457,-0.06555 -1.18956,-0.143518 -1.63329,-0.173286 l -0.80681,-0.05413 v -3.453241 -3.453238 h 0.84665 c 3.26425,0 7.443,1.141831 10.64546,2.908843 3.25428,1.795582 6.23812,4.54218 8.34132,7.678074 1.8738,2.79387 3.16472,6.077833 3.69755,9.406223 0.15936,0.995537 0.31911,2.695495 0.31911,3.396094 v 0.382137 h -3.50275 -3.50274 z m 11.96405,0.298278 c -0.001,-0.694025 -0.1898,-2.964767 -0.32139,-3.876622 -0.74955,-5.189775 -2.8232,-9.925206 -6.16738,-14.084124 -1.68404,-2.094294 -4.1146,-4.294637 -6.45917,-5.847351 -4.34362,-2.876611 -9.44852,-4.533937 -14.54227,-4.721201 l -1.31844,-0.04848 v -3.608516 -3.60852 l 0.1771,3.88e-4 c 0.0973,2.21e-4 0.85008,0.03704 1.67263,0.08184 9.82147,0.534801 18.75552,4.878192 25.25027,12.27572 5.40259,6.153544 8.51278,13.994355 8.8439,22.2955 l 0.0527,1.318445 h -3.59375 -3.59374 l -2.9e-4,-0.177097 z m -25.09215,-0.06051 c -1.76713,-0.462979 -3.10725,-1.813398 -3.56126,-3.588598 -0.36095,-1.411223 -0.0449,-2.852328 0.89979,-4.100335 1.17052,-1.546697 3.36687,-2.26089 5.25047,-1.707332 1.26347,0.371322 2.40574,1.322594 2.96987,2.473367 0.46147,0.941309 0.59135,1.521976 0.54533,2.437664 -0.1541,3.06333 -3.1445,5.260678 -6.1042,4.485234 z"
       id="path1653" /></g></svg>
